<?xml version="1.0" encoding="UTF-8" standalone="no"?>
<svg
   xmlns:dc="http://purl.org/dc/elements/1.1/"
   xmlns:cc="http://creativecommons.org/ns#"
   xmlns:rdf="http://www.w3.org/1999/02/22-rdf-syntax-ns#"
   xmlns:svg="http://www.w3.org/2000/svg"
   xmlns="http://www.w3.org/2000/svg"
   xmlns:sodipodi="http://sodipodi.sourceforge.net/DTD/sodipodi-0.dtd"
   xmlns:inkscape="http://www.inkscape.org/namespaces/inkscape"
   height="282"
   width="405.47122"
   version="1.1"
   id="svg64"
   sodipodi:docname="docker.svg"
   inkscape:version="0.92.5 (2060ec1f9f, 2020-04-08)">
  <metadata
     id="metadata70">
    <rdf:RDF>
      <cc:Work
         rdf:about="">
        <dc:format>image/svg+xml</dc:format>
        <dc:type
           rdf:resource="http://purl.org/dc/dcmitype/StillImage" />
      </cc:Work>
    </rdf:RDF>
  </metadata>
  <defs
     id="defs68" />
  <sodipodi:namedview
     pagecolor="#ffffff"
     bordercolor="#666666"
     borderopacity="1"
     objecttolerance="10"
     gridtolerance="10"
     guidetolerance="10"
     inkscape:pageopacity="0"
     inkscape:pageshadow="2"
     inkscape:window-width="1920"
     inkscape:window-height="1136"
     id="namedview66"
     showgrid="false"
     inkscape:zoom="1.8007812"
     inkscape:cx="189.47123"
     inkscape:cy="141"
     inkscape:window-x="0"
     inkscape:window-y="27"
     inkscape:window-maximized="1"
     inkscape:current-layer="svg64" />
  <path
     d="m 229.47123,130 h 42 V 92 h -42 z m -50,0 h 42 V 92 h -42 z m -49,0 h 42 V 92 h -42 z m -48.999997,0 H 122.47123 V 92 H 81.471233 Z m -50,0 h 42 V 92 h -42 z m 50,-46 H 122.47123 V 46 H 81.471233 Z m 48.999997,0 h 42 V 46 h -42 z m 49,0 h 42 V 46 h -42 z m 0,-46 h 42 V 0 h -42 z m 226,75 c 0,0 -18,-17 -55,-11 -4,-29 -35,-46 -35,-46 0,0 -29,35 -8,74 -6,3 -16,7 -31,7 H 1.4712327 c -5,19 -5,145 132.9999973,145 99,0 173,-46 208,-130 52,4 63,-39 63,-39 z"
     id="path62"
     style="fill:#000000"
     inkscape:connector-curvature="0" />
</svg>
